
<svg width="33" height="26" viewBox="0 0 36 40" fill="none" xmlns="http://www.w3.org/2000/svg">
    <path d="M31.9166 21.6666V33.3333C31.9166 33.7753 31.741 34.1992 31.4284 34.5118C31.1159 34.8244 30.6919 35 30.2499 35H10.2499C9.80789 35 9.38397 34.8244 9.07141 34.5118C8.75885 34.1992 8.58325 33.7753 8.58325 33.3333V21.6666" stroke="#00529C" stroke-width="2.5" stroke-linecap="round" stroke-linejoin="round"/>
    <path d="M20.25 5.00004H30.6667C31.0407 4.98621 31.4086 5.09871 31.7109 5.31942C32.0133 5.54014 32.2325 5.8562 32.3333 6.21671L34.9667 15.4667C35.177 16.2658 35.2724 17.0907 35.25 17.9167C35.25 18.9113 34.8549 19.8651 34.1517 20.5684C33.4484 21.2716 32.4946 21.6667 31.5 21.6667V21.6667C30.5054 21.6667 29.5516 21.2716 28.8484 20.5684C28.1451 19.8651 27.75 18.9113 27.75 17.9167C27.75 18.9113 27.3549 19.8651 26.6517 20.5684C25.9484 21.2716 24.9946 21.6667 24 21.6667C23.0054 21.6667 22.0516 21.2716 21.3484 20.5684C20.6451 19.8651 20.25 18.9113 20.25 17.9167" stroke="#00529C" stroke-width="2.5" stroke-linecap="round" stroke-linejoin="round"/>
    <path d="M20.25 5.00004H9.83334C9.45926 4.98621 9.09141 5.09871 8.78907 5.31942C8.48673 5.54014 8.26748 5.8562 8.16667 6.21671L5.6 15.4667C5.36718 16.2625 5.24932 17.0875 5.25 17.9167V17.9167C5.25 18.9113 5.64509 19.8651 6.34835 20.5684C7.05161 21.2716 8.00544 21.6667 9 21.6667V21.6667C9.99456 21.6667 10.9484 21.2716 11.6517 20.5684C12.3549 19.8651 12.75 18.9113 12.75 17.9167C12.75 18.9113 13.1451 19.8651 13.8484 20.5684C14.5516 21.2716 15.5054 21.6667 16.5 21.6667C17.4946 21.6667 18.4484 21.2716 19.1517 20.5684C19.8549 19.8651 20.25 18.9113 20.25 17.9167" stroke="#00529C" stroke-width="2.5" stroke-linecap="round" stroke-linejoin="round"/>
    </svg>
    
